<?xml version="1.0" encoding="UTF-8" standalone="no"?>
<!DOCTYPE svg PUBLIC "-//W3C//DTD SVG 20010904//EN"
              "http://www.w3.org/TR/2001/REC-SVG-20010904/DTD/svg10.dtd">

<svg xmlns="http://www.w3.org/2000/svg"
     width="8.26389in" height="2.91667in"
     viewBox="0 0 595 210">
  <path id="Auswahl"
        fill="#f14d1c" stroke="#f14d1c" stroke-width="1"
        d="M 56.00,45.00
           C 61.80,38.17 72.61,33.84 81.00,31.00
             111.17,20.82 143.77,26.45 164.53,52.00
             180.62,71.80 182.22,99.56 174.33,123.00
             171.34,131.89 165.37,145.20 158.00,151.00
             158.00,146.39 158.31,142.39 156.52,138.00
             155.21,134.79 153.40,132.48 150.96,130.04
             143.28,122.37 131.19,120.22 122.00,126.65
             115.16,131.43 113.14,137.38 110.61,138.98
             108.37,140.40 102.75,140.00 100.00,140.00
             100.00,140.00 117.70,99.00 117.70,99.00
             117.70,99.00 142.00,45.00 142.00,45.00
             134.52,43.02 115.77,39.80 109.09,43.93
             103.18,47.59 100.74,58.65 97.37,61.01
             95.46,62.34 90.37,62.04 88.00,62.00
             79.35,61.84 79.23,55.50 73.00,50.21
             67.58,45.62 62.80,45.06 56.00,45.00 Z
           M 37.00,64.00
           C 39.77,58.10 44.52,52.61 51.00,51.00
             51.00,51.00 56.00,61.00 56.00,61.00
             52.63,61.18 52.73,61.10 51.00,64.00
             51.00,64.00 56.00,64.00 56.00,64.00
             56.00,64.00 56.00,68.00 56.00,68.00
             56.00,68.00 51.00,66.00 51.00,66.00
             51.00,66.00 52.00,68.00 52.00,68.00
             45.95,66.12 45.38,65.45 39.00,67.00
             39.00,67.00 37.00,64.00 37.00,64.00 Z
           M 348.00,170.00
           C 333.69,170.00 307.41,174.52 309.33,152.00
             309.33,152.00 316.29,124.00 316.29,124.00
             316.29,124.00 327.29,84.00 327.29,84.00
             329.06,77.77 332.19,62.59 336.39,58.39
             341.35,53.43 353.27,53.00 360.00,53.00
             360.00,53.00 353.00,80.00 353.00,80.00
             353.00,80.00 369.00,80.00 369.00,80.00
             368.04,83.30 366.69,91.92 363.58,93.43
             359.90,95.22 352.22,92.10 349.14,96.31
             347.69,98.29 345.62,107.15 344.85,110.00
             344.85,110.00 337.56,138.00 337.56,138.00
             336.38,142.04 334.75,149.05 337.56,152.57
             340.53,155.85 347.96,155.00 352.00,155.00
             352.00,155.00 348.00,170.00 348.00,170.00 Z
           M 402.00,155.00
           C 401.41,157.91 399.43,167.34 397.28,169.01
             395.13,170.67 381.43,170.02 378.00,170.00
             375.06,169.98 372.83,170.06 370.00,169.03
             354.25,163.33 360.83,144.68 364.14,133.00
             364.14,133.00 379.00,79.00 379.00,79.00
             380.68,73.15 382.79,61.55 387.34,57.65
             392.31,53.39 404.60,53.00 411.00,53.00
             411.00,53.00 404.00,80.00 404.00,80.00
             404.00,80.00 419.00,80.00 419.00,80.00
             419.00,80.00 416.00,94.00 416.00,94.00
             416.00,94.00 399.00,94.00 399.00,94.00
             399.00,94.00 388.37,135.00 388.37,135.00
             387.25,139.51 384.62,147.85 387.60,151.85
             390.70,156.01 397.35,155.00 402.00,155.00 Z
           M 63.00,60.00
           C 63.00,60.00 71.00,65.00 71.00,65.00
             71.00,65.00 62.00,65.00 62.00,65.00
             62.00,65.00 63.00,60.00 63.00,60.00 Z
           M 57.00,61.00
           C 57.00,61.00 58.00,61.00 58.00,61.00
             58.00,61.00 57.00,62.00 57.00,62.00
             57.00,62.00 57.00,61.00 57.00,61.00 Z
           M 34.00,66.00
           C 35.73,70.32 34.75,72.58 37.33,78.00
             41.76,87.32 52.47,94.89 63.00,92.00
             57.59,89.74 61.47,84.44 65.04,82.43
             70.45,79.39 72.32,84.12 75.55,83.74
             78.37,83.40 79.98,79.23 81.00,77.00
             81.00,77.00 75.00,81.00 75.00,81.00
             72.23,78.12 69.53,79.13 66.00,80.00
             68.64,75.79 71.04,74.36 76.00,75.00
             76.00,75.00 77.00,71.00 77.00,71.00
             77.00,71.00 74.00,73.00 74.00,73.00
             74.39,71.55 74.20,70.79 76.14,70.36
             80.27,69.44 81.02,74.17 82.00,77.00
             84.45,74.26 87.53,75.00 91.00,75.00
             91.00,75.00 79.86,101.00 79.86,101.00
             79.86,101.00 51.00,168.00 51.00,168.00
             56.99,169.20 69.28,172.30 75.00,171.81
             82.20,171.20 85.31,168.09 88.69,162.00
             89.87,159.88 91.76,155.31 93.63,153.99
             95.96,152.37 108.51,153.00 112.00,153.00
             114.19,160.41 120.47,167.03 128.00,169.21
             131.68,170.28 134.35,169.55 138.00,171.00
             122.59,180.25 107.32,186.79 89.00,187.00
             80.05,187.10 70.46,185.61 62.00,182.66
             55.66,180.44 48.27,176.63 43.00,172.48
             8.56,145.39 11.67,99.53 34.00,66.00 Z
           M 74.00,78.00
           C 74.00,78.00 73.00,78.00 73.00,78.00
             73.00,78.00 74.00,79.00 74.00,79.00
             74.00,79.00 74.00,78.00 74.00,78.00 Z
           M 234.00,94.00
           C 238.00,80.30 236.77,80.05 245.00,80.00
             245.00,80.00 291.00,80.59 291.00,80.59
             298.18,81.72 305.06,83.73 308.35,91.00
             311.87,98.78 308.00,112.03 305.71,120.00
             305.71,120.00 295.46,158.00 295.46,158.00
             295.38,161.59 297.17,166.34 298.00,170.00
             298.00,170.00 280.00,170.00 280.00,170.00
             280.00,170.00 273.58,168.98 273.58,168.98
             273.58,168.98 271.00,160.00 271.00,160.00
             259.79,166.38 251.96,169.15 239.00,169.00
             217.97,168.75 208.69,148.27 221.53,132.01
             233.21,117.22 254.99,117.03 272.00,117.00
             274.21,117.00 277.71,117.22 279.58,115.98
             281.86,114.47 288.58,102.16 277.98,96.69
             274.87,95.08 271.40,95.04 268.00,94.58
             268.00,94.58 234.00,94.00 234.00,94.00 Z
           M 434.00,80.00
           C 434.00,80.00 480.00,80.00 480.00,80.00
             494.20,80.07 506.63,84.43 505.96,101.00
             505.96,101.00 492.04,157.00 492.04,157.00
             491.80,163.05 492.73,164.60 495.00,170.00
             495.00,170.00 469.00,170.00 469.00,170.00
             469.00,170.00 467.00,160.00 467.00,160.00
             455.73,166.41 449.08,169.06 436.00,169.00
             414.06,168.90 404.80,148.87 417.76,132.04
             429.23,117.14 451.09,117.03 468.00,117.00
             470.72,116.99 474.33,117.32 476.49,115.40
             478.92,113.25 483.82,101.41 473.98,96.57
             470.01,94.61 460.57,94.01 456.00,94.00
             456.00,94.00 430.00,94.00 430.00,94.00
             430.00,94.00 434.00,80.00 434.00,80.00 Z
           M 566.00,155.00
           C 565.41,157.91 563.43,167.33 561.28,169.01
             559.73,170.21 545.66,171.05 543.00,170.99
             524.14,170.56 510.25,162.54 510.00,142.00
             509.91,133.62 509.87,128.30 511.90,120.00
             513.30,114.25 515.53,108.25 518.26,103.00
             532.03,76.59 561.71,80.00 587.00,80.00
             587.00,80.00 584.00,95.00 584.00,95.00
             572.62,95.00 555.98,94.93 547.30,103.33
             544.90,105.65 542.75,108.98 541.21,112.00
             536.62,121.97 530.72,144.42 541.21,152.35
             548.33,157.87 557.79,155.07 566.00,155.00 Z
           M 77.00,81.00
           C 77.00,81.00 78.00,81.00 78.00,81.00
             78.00,81.00 77.00,82.00 77.00,82.00
             77.00,82.00 77.00,81.00 77.00,81.00 Z
           M 76.00,85.00
           C 76.00,85.00 75.00,85.00 75.00,85.00
             75.00,85.00 76.00,86.00 76.00,86.00
             76.00,86.00 76.00,85.00 76.00,85.00 Z
           M 75.00,86.00
           C 75.00,86.00 74.00,86.00 74.00,86.00
             74.00,86.00 75.00,87.00 75.00,87.00
             75.00,87.00 75.00,86.00 75.00,86.00 Z
           M 146.00,157.00
           C 146.00,157.00 143.67,143.14 143.67,143.14
             141.62,139.38 137.72,140.04 136.04,137.49
             132.55,132.23 139.97,128.05 144.00,127.00
             144.00,127.00 152.82,134.01 152.82,134.01
             152.82,134.01 155.42,139.28 155.42,139.28
             155.42,139.28 150.03,154.58 150.03,154.58
             150.03,154.58 146.00,157.00 146.00,157.00 Z
           M 277.00,129.00
           C 277.00,129.00 266.00,129.00 266.00,129.00
             256.33,129.02 245.47,131.33 240.92,141.00
             239.87,143.22 239.23,145.54 239.62,148.00
             241.31,158.46 254.42,158.55 262.00,154.95
             271.58,150.40 276.16,139.01 277.00,129.00 Z
           M 473.00,129.00
           C 473.00,129.00 462.00,129.00 462.00,129.00
             450.84,129.02 434.73,133.91 436.11,148.00
             437.14,158.55 450.60,158.35 458.00,155.03
             467.96,150.57 472.52,139.27 473.00,129.00 Z
           M 113.00,138.24
           C 114.72,138.02 117.08,137.93 118.70,138.24
             123.14,140.00 127.13,145.98 126.40,150.72
             126.40,150.72 123.41,158.00 123.41,158.00
             123.41,158.00 122.00,164.00 122.00,164.00
             122.00,164.00 113.50,145.00 113.50,145.00
             113.50,145.00 113.00,138.24 113.00,138.24 Z
           M 156.00,148.00
           C 156.00,148.00 155.00,153.00 155.00,153.00
             155.00,153.00 156.00,148.00 156.00,148.00 Z" />
</svg>
