<?xml version="1.0" encoding="UTF-8" standalone="no"?>
<!DOCTYPE svg PUBLIC "-//W3C//DTD SVG 20010904//EN"
              "http://www.w3.org/TR/2001/REC-SVG-20010904/DTD/svg10.dtd">

<svg xmlns="http://www.w3.org/2000/svg"
     width="63.4921mm" height="63.4921mm"
     viewBox="0 0 180 180">
  <path id="Auswahl"
        fill="#f14d1c" stroke="#f14d1c" stroke-width="1"
        d="M 48.00,31.00
           C 50.94,25.66 56.73,22.65 62.00,19.79
             75.60,12.40 90.69,9.78 106.00,10.00
             109.70,10.06 115.41,10.20 118.00,13.00
             123.06,12.02 126.29,13.64 131.00,15.42
             142.57,19.79 149.37,25.23 156.98,35.00
             174.56,57.52 177.56,89.16 166.14,115.00
             162.54,123.15 158.32,131.64 151.00,137.00
             151.00,137.00 151.00,126.00 151.00,126.00
             143.74,132.20 149.19,138.91 139.00,142.00
             139.00,142.00 135.74,128.14 135.74,128.14
             135.74,128.14 128.37,120.89 128.37,120.89
             128.37,120.89 131.00,110.00 131.00,110.00
             131.00,110.00 132.00,110.00 132.00,110.00
             132.00,110.00 133.00,108.00 133.00,108.00
             119.65,108.00 112.49,110.44 106.00,123.06
             108.38,122.56 109.56,122.17 111.96,123.06
             113.69,123.81 115.85,125.56 117.07,126.90
             124.11,134.14 115.68,139.59 117.07,149.00
             111.18,145.89 112.61,143.28 110.37,138.00
             107.55,131.36 105.10,132.16 107.00,124.00
             101.72,126.77 98.82,126.00 93.00,126.00
             94.24,118.08 102.53,102.16 106.14,94.00
             106.14,94.00 134.00,29.87 134.00,29.87
             126.38,28.08 108.76,25.10 102.10,29.87
             96.25,33.81 94.70,44.37 90.61,46.98
             88.61,48.26 84.39,48.04 82.00,48.00
             73.00,47.83 75.17,44.11 69.67,38.17
             64.10,32.15 56.02,29.12 48.00,31.00 Z
           M 32.00,52.00
           C 31.31,44.64 31.60,43.69 37.73,38.55
             39.35,37.19 41.34,35.13 43.64,36.17
             45.36,36.94 50.69,45.03 52.00,47.00
             52.00,47.00 46.00,46.00 46.00,46.00
             46.00,46.00 46.00,48.00 46.00,48.00
             52.27,49.10 50.53,52.26 47.37,52.65
             44.88,52.95 40.68,51.27 32.00,52.00 Z
           M 57.00,45.00
           C 57.00,45.00 65.00,48.00 65.00,48.00
             65.00,48.00 65.00,50.00 65.00,50.00
             65.00,50.00 56.00,51.00 56.00,51.00
             56.00,51.00 57.00,45.00 57.00,45.00 Z
           M 27.00,49.00
           C 27.00,49.00 30.00,49.00 30.00,49.00
             27.47,63.87 37.86,76.62 53.00,77.00
             54.16,69.65 60.67,62.18 66.01,57.15
             70.09,53.31 74.67,53.78 75.00,60.00
             75.00,60.00 85.00,60.00 85.00,60.00
             85.00,60.00 71.42,92.00 71.42,92.00
             71.42,92.00 45.00,153.00 45.00,153.00
             52.79,154.10 66.47,158.02 74.00,155.11
             81.83,152.08 82.78,141.68 86.63,138.99
             88.98,137.36 102.41,138.00 106.00,138.00
             107.65,145.87 114.33,151.96 122.00,154.07
             126.54,155.32 129.09,154.12 133.00,157.00
             133.00,157.00 130.00,159.00 130.00,159.00
             130.00,159.00 121.00,164.00 121.00,164.00
             117.72,164.03 111.59,166.99 109.00,169.00
             104.04,169.12 97.09,172.87 86.00,173.00
             67.02,173.22 52.67,169.83 37.00,158.57
             32.83,155.58 27.50,151.06 24.41,147.00
             24.41,147.00 20.49,140.28 20.49,140.28
             17.72,135.83 16.40,134.23 14.48,129.01
             11.04,119.68 9.95,109.87 10.00,100.00
             10.03,93.77 12.16,75.71 17.00,72.00
             16.70,63.68 24.13,56.50 27.00,49.00 Z
           M 63.00,55.00
           C 63.00,55.00 65.00,58.00 65.00,58.00
             65.00,58.00 63.00,58.00 63.00,58.00
             63.00,58.00 63.00,55.00 63.00,55.00 Z
           M 66.00,66.00
           C 63.94,63.91 63.35,64.52 61.00,66.00
             61.00,66.00 71.00,69.00 71.00,69.00
             71.00,69.00 71.00,65.00 71.00,65.00
             71.00,65.00 66.00,66.00 66.00,66.00 Z
           M 138.00,112.00
           C 138.00,112.00 134.00,111.00 134.00,111.00
             137.19,113.23 140.05,114.77 144.00,114.00
             144.00,114.00 138.00,112.00 138.00,112.00 Z
           M 149.00,133.00
           C 149.89,135.99 149.53,136.32 147.00,138.00
             147.00,138.00 149.00,133.00 149.00,133.00 Z" />
</svg>
