<?xml version="1.0" encoding="UTF-8" standalone="no"?>
<!DOCTYPE svg PUBLIC "-//W3C//DTD SVG 20010904//EN"
              "http://www.w3.org/TR/2001/REC-SVG-20010904/DTD/svg10.dtd">

<svg xmlns="http://www.w3.org/2000/svg"
     width="60.6702mm" height="59.2593mm"
     viewBox="0 0 172 168">
  <path id="Auswahl"
        fill="none" stroke="black" stroke-width="1"
        d="M 44.00,25.00
           C 46.53,19.81 52.06,16.94 57.04,14.26
             68.92,7.85 82.46,4.02 96.00,4.00
             100.05,3.99 106.10,2.76 109.00,6.00
             118.50,4.13 132.42,10.63 140.00,16.16
             164.09,33.73 173.66,67.73 166.63,96.00
             164.17,105.88 161.04,113.40 155.56,122.00
             151.84,127.84 150.11,131.13 143.00,132.00
             143.00,132.00 145.00,127.00 145.00,127.00
             145.00,127.00 147.00,130.00 147.00,130.00
             147.00,130.00 146.00,120.00 146.00,120.00
             143.08,124.13 143.84,123.51 142.55,128.00
             142.16,129.35 141.69,130.70 141.02,131.94
             140.23,133.42 139.04,135.38 137.12,135.39
             132.20,135.43 134.02,125.00 131.15,121.50
             129.42,119.39 126.50,118.68 124.00,118.00
             124.00,118.00 128.00,102.00 128.00,102.00
             120.98,102.02 106.87,104.24 106.00,113.00
             106.00,113.00 102.00,116.99 102.00,116.99
             104.29,116.52 105.63,116.05 107.96,116.99
             109.50,117.58 111.17,119.00 112.37,120.13
             119.49,126.91 114.32,131.75 112.98,138.00
             112.43,140.48 112.70,141.58 112.98,144.00
             107.08,139.22 108.74,138.10 106.16,132.09
             103.62,126.15 100.82,127.07 103.00,118.00
             97.61,120.83 93.94,120.00 88.00,120.00
             88.00,120.00 101.14,90.00 101.14,90.00
             101.14,90.00 130.00,24.00 130.00,24.00
             122.21,22.58 106.01,19.21 99.09,23.16
             92.83,26.73 90.70,38.37 86.61,40.98
             84.52,42.31 79.54,42.04 77.00,42.00
             67.88,41.84 71.87,38.28 64.70,31.33
             58.93,25.74 51.77,23.78 44.00,25.00 Z
           M 29.00,44.00
           C 23.94,39.18 35.82,28.63 39.62,30.15
             41.81,31.03 46.64,38.79 48.00,41.00
             48.00,41.00 42.00,40.00 42.00,40.00
             53.98,50.71 36.99,44.04 28.00,47.00
             28.00,47.00 29.00,44.00 29.00,44.00 Z
           M 53.00,39.00
           C 53.00,39.00 62.00,43.00 62.00,43.00
             62.00,43.00 60.00,47.00 60.00,47.00
             60.00,47.00 52.00,45.00 52.00,45.00
             52.00,45.00 53.00,39.00 53.00,39.00 Z
           M 23.00,43.00
           C 23.00,43.00 26.19,43.00 26.19,43.00
             25.84,46.33 25.61,49.73 26.19,53.00
             28.86,63.65 38.30,70.73 49.00,71.00
             49.00,71.00 55.00,57.00 55.00,57.00
             59.55,53.64 69.82,41.47 72.00,54.00
             72.00,54.00 81.00,54.00 81.00,54.00
             81.00,54.00 68.00,85.00 68.00,85.00
             68.00,85.00 41.00,147.00 41.00,147.00
             48.64,148.03 64.07,152.21 70.96,148.69
             77.81,145.19 79.17,134.54 83.39,132.57
             84.80,131.92 87.43,132.01 89.00,132.00
             94.56,131.97 97.44,132.35 103.00,131.00
             102.52,140.08 110.95,146.16 119.00,148.24
             123.08,149.29 126.37,148.06 129.00,151.00
             129.00,151.00 126.00,153.00 126.00,153.00
             126.00,153.00 124.00,152.00 124.00,152.00
             121.82,155.75 119.22,156.65 115.00,157.00
             115.00,157.00 115.00,159.00 115.00,159.00
             115.00,159.00 105.00,161.00 105.00,161.00
             100.49,166.83 82.15,167.08 75.00,167.00
             58.35,166.80 41.80,160.03 29.00,149.54
             23.84,145.31 17.44,140.05 17.00,133.00
             12.58,130.42 11.74,126.65 10.05,122.00
             6.07,111.03 5.98,104.35 6.00,93.00
             6.01,89.68 5.40,87.33 8.00,85.00
             7.36,82.05 6.70,81.16 9.00,79.00
             9.00,79.00 8.00,75.00 8.00,75.00
             8.00,75.00 10.00,75.00 10.00,75.00
             9.65,71.02 9.66,68.56 13.00,66.00
             12.38,58.59 19.78,49.60 23.00,43.00 Z
           M 58.00,49.00
           C 58.00,49.00 61.00,49.00 61.00,49.00
             61.00,49.00 59.00,53.00 59.00,53.00
             59.00,53.00 58.00,49.00 58.00,49.00 Z
           M 66.00,52.00
           C 66.00,52.00 65.00,52.00 65.00,52.00
             65.00,52.00 66.00,53.00 66.00,53.00
             66.00,53.00 66.00,52.00 66.00,52.00 Z
           M 62.00,60.00
           C 59.94,57.91 59.35,58.52 57.00,60.00
             57.00,60.00 67.00,63.00 67.00,63.00
             67.00,63.00 65.00,59.00 65.00,59.00
             65.00,59.00 62.00,60.00 62.00,60.00 Z
           M 69.00,58.00
           C 69.00,58.00 68.00,58.00 68.00,58.00
             68.00,58.00 69.00,59.00 69.00,59.00
             69.00,59.00 69.00,58.00 69.00,58.00 Z
           M 134.00,106.00
           C 134.00,106.00 130.00,105.00 130.00,105.00
             133.21,107.23 135.15,108.36 139.00,107.00
             139.00,107.00 134.00,106.00 134.00,106.00 Z
           M 140.00,108.00
           C 140.00,108.00 139.00,108.00 139.00,108.00
             139.00,108.00 140.00,109.00 140.00,109.00
             140.00,109.00 140.00,108.00 140.00,108.00 Z" />
</svg>
